PathFileType	4	(X/Y/Z)	c:/Users/goper/Files/vsCode/490R/osim_files/C10/C10_Fast_05.trc
DataRate	CameraRate	NumFrames	NumMarkers	Units                	OrigDataRate	OrigDataStartFrame	OrigNumFrames
250.00	250.00	10	36	mm	250.0	1417	2266
                Frame#	Time	LPSIS			LASIS			LTH1			LTH2			LTH3			LTH4			LLFE			LMFE			LSH1			LSH2			LSH3			LSH4			LLMAL			LMMAL			LCAL			LMTP5			LTOE			LMTP1			RPSIS			RASIS			RTH1			RTH2			RTH3			RTH4			RLFE			RMFE			RSH1			RSH2			RSH3			RSH4			RLMAL			RMMAL			RCAL			RMTP1			RTOE			RMTP5		
		X1	Y1	Z1	X2	Y2	Z2	X3	Y3	Z3	X4	Y4	Z4	X5	Y5	Z5	X6	Y6	Z6	X7	Y7	Z7	X8	Y8	Z8	X9	Y9	Z9	X10	Y10	Z10	X11	Y11	Z11	X12	Y12	Z12	X13	Y13	Z13	X14	Y14	Z14	X15	Y15	Z15	X16	Y16	Z16	X17	Y17	Z17	X18	Y18	Z18	X19	Y19	Z19	X20	Y20	Z20	X21	Y21	Z21	X22	Y22	Z22	X23	Y23	Z23	X24	Y24	Z24	X25	Y25	Z25	X26	Y26	Z26	X27	Y27	Z27	X28	Y28	Z28	X29	Y29	Z29	X30	Y30	Z30	X31	Y31	Z31	X32	Y32	Z32	X33	Y33	Z33	X34	Y34	Z34	X35	Y35	Z35	X36	Y36	Z36

1417	5.66400	0.00000	0.00000	0.00000	-2731.45264	981.93634	383.72769	-2791.68628	774.76282	402.45361	-2805.44849	730.23639	396.38708	-2743.85132	748.60089	428.76569	-2767.32935	707.70929	421.97604	-2888.23047	504.88391	325.68506	-2949.24731	560.72748	255.59270	-2850.00269	405.82007	349.71185	-2856.38965	358.17581	348.66068	0.00000	0.00000	0.00000	0.00000	0.00000	0.00000	-2893.41504	89.23553	297.98697	0.00000	0.00000	0.00000	-2819.21997	43.80787	264.44296	-2994.14502	33.94072	301.00607	0.00000	0.00000	0.00000	0.00000	0.00000	0.00000	-2545.21289	984.97479	185.84773	-2698.87549	948.83356	52.51463	0.00000	0.00000	0.00000	-2549.99512	676.33606	36.02089	-2613.35107	709.41211	23.56208	-2609.25220	665.77130	29.39766	-2510.49072	456.94150	92.05749	-2536.75586	437.74426	199.44121	-2397.26929	427.09634	101.00700	-2371.20898	391.76883	102.36279	-2440.80347	376.87933	109.01881	-2408.43115	358.16867	95.80859	-2224.73950	167.43521	163.22824	0.00000	0.00000	0.00000	-2151.92993	165.90352	210.47598	-2321.19995	51.63508	240.07677	0.00000	0.00000	0.00000	-2268.08984	37.21043	159.03410
1418	5.66800	0.00000	0.00000	0.00000	-2737.10181	983.55859	383.39542	-2797.59521	776.04016	402.48987	-2811.49390	731.53979	396.36322	-2750.02051	749.59021	428.91937	-2773.67749	708.80670	422.06619	-2893.29688	504.45105	325.48792	-2954.19678	559.97119	255.10452	-2853.72583	405.76135	349.69531	-2859.49707	357.85770	348.43445	-2910.34497	410.89127	323.57031	0.00000	0.00000	0.00000	-2893.70630	89.15355	297.98679	0.00000	0.00000	0.00000	-2819.29834	43.81315	264.45648	0.00000	0.00000	0.00000	-2743.23413	967.12360	36.48233	0.00000	0.00000	0.00000	-2551.28198	984.87054	184.38890	-2706.07788	948.95575	52.89195	0.00000	0.00000	0.00000	-2558.91089	675.33069	35.82557	-2621.72974	708.77002	23.53451	-2618.16895	665.08990	29.37974	-2521.13867	455.48788	90.80299	-2558.62256	438.24390	202.05305	-2407.42847	427.28259	99.96695	-2380.87500	392.35117	101.30862	-2450.37939	376.29370	107.76219	-2417.48022	358.11206	94.51967	-2231.51318	170.52095	162.53151	0.00000	0.00000	0.00000	-2157.75171	171.89607	209.49466	-2322.46313	51.89344	239.92719	0.00000	0.00000	0.00000	-2269.44482	38.49966	158.90424
1419	5.67200	0.00000	0.00000	0.00000	-2742.59277	985.15686	383.12476	-2803.48584	777.17401	402.63937	-2817.55469	732.73114	396.45129	-2756.17065	750.50256	429.09467	-2779.97241	709.83124	422.23276	0.00000	0.00000	0.00000	-2958.81494	559.13818	254.53822	-2857.22070	405.70703	349.73639	-2862.27808	357.59515	348.28241	-2913.82056	410.28284	323.55878	0.00000	0.00000	0.00000	-2893.97363	89.07973	297.94101	0.00000	0.00000	0.00000	-2819.34985	43.88358	264.46475	-2976.27344	10.26510	229.18390	0.00000	0.00000	0.00000	0.00000	0.00000	0.00000	-2557.26831	984.89044	182.83553	-2713.03125	949.10822	53.29645	0.00000	0.00000	0.00000	-2567.50146	673.84314	35.68051	-2630.26147	708.16235	23.51897	-2627.09546	664.34351	29.36524	-2532.03442	454.00964	89.61760	-2569.73779	436.25247	200.72832	-2418.07593	427.41553	98.82853	-2391.51392	392.66971	100.19770	-2460.23828	375.73209	106.42622	-2427.31616	357.87036	93.38724	-2237.25903	174.53224	161.22902	0.00000	0.00000	0.00000	-2164.14844	178.25893	208.55525	-2323.72949	52.17796	239.59338	0.00000	0.00000	0.00000	-2271.03516	40.15129	158.71523
1420	5.67600	0.00000	0.00000	0.00000	-2747.90527	986.72913	382.96167	-2809.38672	778.17047	402.84860	-2823.63916	733.84070	396.69803	-2762.28931	751.40955	429.39499	-2786.31396	710.83588	422.55090	0.00000	0.00000	0.00000	-2962.77808	558.48865	254.21329	-2859.88452	398.64011	348.00439	-2856.62793	354.26334	349.47208	-2916.93262	409.74756	323.56491	0.00000	0.00000	0.00000	-2894.29907	89.03022	297.86951	0.00000	0.00000	0.00000	-2819.39453	43.91687	264.43677	0.00000	0.00000	0.00000	-2756.30542	967.38605	36.38718	0.00000	0.00000	0.00000	-2561.33887	984.94714	181.05165	-2719.82080	949.30615	53.68243	0.00000	0.00000	0.00000	-2576.22339	672.58954	35.56360	-2635.93335	707.74786	22.82019	-2635.98657	663.59082	29.36401	-2543.11182	452.45166	88.46814	-2581.22998	434.32532	199.32242	-2429.59082	427.32858	97.90536	-2401.47949	393.38202	99.06215	-2470.43091	375.18219	105.13938	-2436.49023	358.01443	92.34776	-2244.64478	177.91879	160.51913	0.00000	0.00000	0.00000	-2171.46558	184.82144	207.57719	-2325.25659	52.68028	239.14757	0.00000	0.00000	0.00000	-2272.77905	42.04856	158.46500
1421	5.68000	0.00000	0.00000	0.00000	-2753.05371	988.26636	382.89383	-2815.31348	779.15027	403.17593	-2829.63867	734.80267	397.05161	-2768.40356	752.34052	429.74899	-2792.40503	711.76544	422.95428	0.00000	0.00000	0.00000	-2966.34082	558.08618	254.12444	-2864.66235	398.32065	346.37839	-2858.72632	354.03973	349.48999	-2919.93921	409.36719	323.74710	0.00000	0.00000	0.00000	-2894.59399	88.95442	297.84796	0.00000	0.00000	0.00000	-2819.43091	43.92396	264.44791	-2976.36377	9.39413	229.54155	0.00000	0.00000	0.00000	0.00000	0.00000	0.00000	-2567.33911	985.02533	179.67949	-2726.62939	949.61310	54.09310	0.00000	0.00000	0.00000	0.00000	0.00000	0.00000	-2644.29297	707.09235	22.72270	-2644.99341	662.86469	29.38531	-2554.38818	450.87595	87.38227	-2592.87573	432.32077	197.90967	-2440.78955	427.40286	96.80522	-2412.01392	393.95694	97.92419	-2480.72363	374.39731	103.98112	-2446.78540	357.75720	91.20798	-2251.67651	181.73781	159.54716	0.00000	0.00000	0.00000	-2178.44043	191.97279	206.52252	-2327.09668	53.27299	238.69893	0.00000	0.00000	0.00000	-2274.80347	44.32872	158.09215
1422	5.68400	0.00000	0.00000	0.00000	-2758.02979	989.76044	382.98080	-2821.18970	780.05133	403.60550	-2835.45825	735.72748	397.52155	-2774.38794	753.29895	430.25375	-2798.51758	712.77325	423.44360	0.00000	0.00000	0.00000	-2969.60571	558.03998	254.20918	-2867.24585	398.32956	346.20770	-2860.74976	353.96158	349.54749	0.00000	0.00000	0.00000	0.00000	0.00000	0.00000	-2894.82446	88.88619	297.84018	0.00000	0.00000	0.00000	-2819.42505	43.94445	264.45517	0.00000	0.00000	0.00000	-2769.70361	968.20441	37.00412	0.00000	0.00000	0.00000	-2573.17334	985.11066	178.38914	-2733.20996	949.92078	54.46230	0.00000	0.00000	0.00000	-2593.83813	670.01184	35.25187	-2655.52124	706.19629	23.36082	-2654.02832	662.12585	29.37150	-2565.80225	449.30621	86.37560	-2604.68604	430.30664	196.53409	-2451.78491	427.52756	95.46184	-2422.87036	394.46579	96.89175	-2491.30957	373.65601	102.91763	-2458.33813	357.37738	90.34549	-2259.22925	185.66444	158.54689	0.00000	0.00000	0.00000	-2186.85010	198.83005	205.53972	-2329.04688	54.13046	238.22942	0.00000	0.00000	0.00000	-2277.03101	46.83897	157.60539
1423	5.68800	0.00000	0.00000	0.00000	-2762.81250	991.04956	383.24243	-2827.00708	780.99585	404.21472	-2841.19214	736.67041	398.04922	-2780.32275	754.40540	430.87357	-2804.24902	713.78180	424.03705	0.00000	0.00000	0.00000	-2972.54028	558.19611	254.20802	-2869.54810	398.38409	346.27652	-2862.81665	354.04852	349.55264	-2924.30566	397.99930	377.02994	0.00000	0.00000	0.00000	-2894.96704	88.82129	297.81784	0.00000	0.00000	0.00000	-2819.38037	43.96567	264.46487	0.00000	0.00000	0.00000	-2776.26831	968.73627	37.27031	0.00000	0.00000	0.00000	-2578.95068	985.25256	177.11069	-2739.64038	950.31433	54.79551	0.00000	0.00000	0.00000	-2602.65552	667.43231	36.05164	-2661.02612	705.89563	22.46258	-2653.73804	662.26050	24.62392	-2578.74731	447.41397	85.65083	-2616.75049	428.39703	195.13689	-2463.47388	427.58514	94.32354	-2434.20996	394.95071	95.83546	-2502.28418	372.96021	101.80113	-2468.93188	357.14096	89.32583	-2267.21265	189.64600	157.58643	0.00000	0.00000	0.00000	-2194.89697	206.04898	204.00475	-2331.02319	54.97829	237.60690	0.00000	0.00000	0.00000	-2279.63647	49.68257	157.08751
1424	5.69200	0.00000	0.00000	0.00000	-2767.58472	992.31085	383.57574	-2832.74146	782.00793	404.91772	-2846.67480	737.59564	398.61710	-2786.08496	755.55347	431.62732	-2809.90137	714.88281	424.65448	0.00000	0.00000	0.00000	-2975.33765	558.54724	254.16287	-2870.96265	398.71725	347.09634	-2864.80664	354.26682	349.59277	0.00000	0.00000	0.00000	0.00000	0.00000	0.00000	-2895.05396	88.78503	297.89932	0.00000	0.00000	0.00000	-2819.31982	43.96474	264.47437	0.00000	0.00000	0.00000	-2782.67383	969.27704	37.49125	0.00000	0.00000	0.00000	-2584.65747	985.37872	175.93111	-2745.93457	950.78766	55.04799	0.00000	0.00000	0.00000	-2611.34741	666.05890	35.76998	-2669.39575	705.32111	22.38485	-2662.64136	661.58270	24.47358	-2590.41895	445.81622	84.80426	-2628.85278	426.57721	193.64992	-2473.86890	428.26477	93.08481	-2445.59985	395.29620	94.81110	-2513.38062	372.15097	100.87737	-2479.82129	356.83340	88.40860	-2275.54272	193.66838	156.60791	0.00000	0.00000	0.00000	-2204.46753	212.97133	202.75865	-2333.54858	56.30359	236.89099	0.00000	0.00000	0.00000	-2282.60864	52.92474	156.52472
1425	5.69600	0.00000	0.00000	0.00000	-2772.30005	993.47314	383.97324	-2838.29810	783.02740	405.62012	-2851.90918	738.56219	399.06363	-2791.77417	756.82251	432.48956	-2815.16675	715.98486	425.22415	0.00000	0.00000	0.00000	-2977.90088	558.94843	253.98186	-2872.83838	398.84311	347.22357	-2866.71387	354.53888	349.58301	-2929.26929	408.37933	325.34155	0.00000	0.00000	0.00000	-2895.12109	88.70565	297.90457	0.00000	0.00000	0.00000	-2819.38599	43.92338	264.50128	0.00000	0.00000	0.00000	-2788.92676	970.00275	37.64729	0.00000	0.00000	0.00000	-2590.25928	985.46875	174.83957	-2752.08765	951.35596	55.28167	-2618.37183	708.31989	34.12881	-2620.24072	664.64124	35.45100	-2677.63281	704.77740	22.21715	-2671.55542	661.03430	24.32567	-2602.17529	444.29565	84.07977	-2641.24780	424.98608	192.22284	-2486.00806	428.04663	91.98480	-2457.00293	395.62906	93.85180	-2524.82910	371.36484	99.94701	-2490.99487	356.44861	87.56223	-2284.21948	197.74284	155.66762	0.00000	0.00000	0.00000	-2213.57642	220.21281	201.02188	-2336.45166	57.74342	235.96266	0.00000	0.00000	0.00000	-2286.01123	56.48098	155.90952
1426	5.70000	0.00000	0.00000	0.00000	-2776.98535	994.63190	384.40808	-2843.69141	783.98334	406.26810	-2856.91479	739.44086	399.44891	-2797.21265	758.10785	433.25861	-2820.20630	717.08850	425.72647	0.00000	0.00000	0.00000	-2980.29004	559.31042	253.76201	-2874.48633	399.01895	347.33432	-2868.67017	354.90143	349.52438	0.00000	0.00000	0.00000	0.00000	0.00000	0.00000	-2895.28247	88.67448	297.90637	0.00000	0.00000	0.00000	-2819.34399	43.93664	264.49353	0.00000	0.00000	0.00000	-2795.03394	970.70508	37.78099	0.00000	0.00000	0.00000	-2595.75464	985.57465	173.76204	-2758.00830	951.96417	55.47999	0.00000	0.00000	0.00000	-2629.06494	663.31989	35.04768	-2685.89844	704.33771	21.98185	-2680.36353	660.54059	24.17489	-2614.01245	442.82578	83.39970	-2653.54272	423.55249	190.87473	-2499.22729	427.53540	91.02341	-2468.92407	395.75443	92.93702	-2536.44922	370.44839	98.99998	-2502.36694	355.95831	86.78431	-2293.11670	201.85086	154.73349	0.00000	0.00000	0.00000	-2223.62183	227.37804	199.39413	-2339.96582	59.53800	234.87639	0.00000	0.00000	0.00000	-2289.92383	60.48057	155.15149
